<mxfile host="app.diagrams.net" modified="2023-03-27T00:09:56.903Z" agent="Mozilla/5.0 (X11; Linux x86_64) AppleWebKit/537.36 (KHTML, like Gecko) Chrome/111.0.0.0 Safari/537.36" version="21.1.1" etag="Tdpa2ig6Ff-7exID_6Aa" type="github">
  <diagram name="ページ1" id="0P4fpCA2ElZijz7k6KJM">
    <mxGraphModel>
      <root>
        <mxCell id="0" />
        <mxCell id="1" parent="0" />
      </root>
    </mxGraphModel>
  </diagram>
</mxfile>
